<svg
            focusable="false"
            role="img"
            viewBox="0 0 288 40"
            preserveAspectRatio="xMidYMid meet"
            xmlns="http://www.w3.org/2000/svg"
          >
            <path
              d="m105.4 10c8.9 0 15 5.9 15 14.2v2.5h-24.3c1 3.9 4.6 6.3 9.3 6.3 4.2 0 7.5-2 8.8-5.3l.1-.4 5.7 3-.1.3c-1.7 4.2-6.8 8.5-14.5 8.5-9.4 0-16-6-16-14.6 0-8.4 6.7-14.5 16-14.5zm141.6 0c8.8 0 15 5.9 15 14.2v2.5h-24.3c1 3.9 4.6 6.3 9.3 6.3 4.2 0 7.4-2 8.8-5.3l.1-.4 5.7 3-.2.3c-1.6 4.2-6.7 8.5-14.4 8.5-9.4 0-16-6-16-14.6 0-8.4 6.7-14.5 16-14.5zm-107.6 0c8.7 0 13.5 3.7 13.5 10.4v11.4c0 .6.1 1 .4 1.1.4.4 1.5.4 3.2 0h.4v5.5h-.3c-6.3 1.4-8.6-1.3-9.5-3.3-2.7 2.5-7 4-11.6 4-7 0-11.6-3.5-11.6-8.9 0-4.8 3.8-7.9 10.8-8.7l11.3-1.5c0-2.6-2.6-4-7-4-3.9 0-7.5 1.8-8.5 4.3l-.1.4-5.8-2.6v-.4c1.8-4.6 7.8-7.8 14.7-7.8zm-55.1-9.4v37.9h-7v-38zm189.6 0v37.9h-7v-38zm13.8 0v37.9h-7v-38zm-111.4-.6c1.8 0 4.6.2 6.4.9l.3.1-1.2 6.2-.4-.1c-1.7-.5-3.4-.7-5-.6-4 0-5.5 1.2-5.5 4h10.7v6.1h-10.7v21.9h-6.9v-21.9h-6.8v-6h6.8v-.2c0-6.7 4.4-10.4 12.3-10.4zm13.8 10.6 7 18.7 6.6-18.7h5.8l6.7 18.7 6.8-18.7h7.2l-11 27.9h-5.9l-6.9-18.3-6.8 18.3h-5.9l-11-28zm-44 15.2-10.5 1.2c-3.7.4-5.1 1.3-5.1 3.2 0 2.7 3.4 3 5.4 3 4.8 0 10-2.1 10-5.6zm-41.1-9.8c-4.2 0-7.4 2-8.7 5.3h17.1c-.6-2.6-3.9-5.3-8.4-5.3zm141.5 0c-4.2 0-7.4 2-8.7 5.3h17.2c-.6-2.6-4-5.3-8.4-5.3z"
              fill="currentColor"
            ></path>
            <path
              d="M19 38.5v-6.8H0V25h14.1L1.4 12.4l4.9-4.8L19 20V.6h7V20L38.6 7.6l4.9 4.8L30.9 25h14v6.8H26v6.8z"
              fill="#36DC90"
            ></path>
          </svg>